<svg id="Ebene_1" data-name="Ebene 1" xmlns="http://www.w3.org/2000/svg" width="32" height="32" viewBox="0 0 32 32"><defs><style>.cls-1{fill:#fff;}</style></defs><title>Zeichenfläche 1</title><g id="ModuleSolrMain"><g id="solr-for-typo3-main-mod"><path id="Path" class="cls-1" d="M6.9,11.9a11.6,11.6,0,0,0-.8,3.2l1.5,2.8Z"/><path id="Path-2" data-name="Path" class="cls-1" d="M11.3,7.2a9.5,9.5,0,0,0-3.5,3.1l1.4,7.3Z"/><path id="Path-3" data-name="Path" class="cls-1" d="M18,6.2,12.3,18.6,22.9,8.8A10.2,10.2,0,0,0,18,6.2Z"/><path id="Path-4" data-name="Path" class="cls-1" d="M21.5,24.3a9.5,9.5,0,0,0,3.1-3.5l-10.2,2Z"/><path id="Path-5" data-name="Path" class="cls-1" d="M16.8,26a10.1,10.1,0,0,0,3.1-.8l-5.7-.7Z"/><path id="Combined-Shape" class="cls-1" d="M16,6h1.4L10.8,17.9,12.1,6.8A10.1,10.1,0,0,1,16,6Zm9.8,8.7a5.7,5.7,0,0,1,.1,1.3,11,11,0,0,1-.8,4L14.2,21.3Z"/><path id="Path-6" data-name="Path" class="cls-1" d="M23.2,9.2,13.4,19.8l12.3-5.7A8.9,8.9,0,0,0,23.2,9.2Z"/></g></g></svg>